<svg width="25" height="24" viewBox="0 0 25 24" fill="none" xmlns="http://www.w3.org/2000/svg">
<path d="M11.8398 3.99632H4.83984C4.30941 3.99632 3.8007 4.20703 3.42563 4.58211C3.05056 4.95718 2.83984 5.46589 2.83984 5.99632V19.9963C2.83984 20.5268 3.05056 21.0355 3.42563 21.4105C3.8007 21.7856 4.30941 21.9963 4.83984 21.9963H18.8398C19.3703 21.9963 19.879 21.7856 20.2541 21.4105C20.6291 21.0355 20.8398 20.5268 20.8398 19.9963V12.9963M19.3398 2.49632C19.7377 2.0985 20.2772 1.875 20.8398 1.875C21.4025 1.875 21.942 2.0985 22.3398 2.49632C22.7377 2.89415 22.9612 3.43371 22.9612 3.99632C22.9612 4.55893 22.7377 5.0985 22.3398 5.49632L12.8398 14.9963L8.83984 15.9963L9.83984 11.9963L19.3398 2.49632Z" stroke="#667085" stroke-width="1.6" stroke-linecap="round" stroke-linejoin="round"/>
</svg>
