<svg width="21" height="20" viewBox="0 0 21 20" fill="none" xmlns="http://www.w3.org/2000/svg">
<g clip-path="url(#clip0_3263_181141)">
<path d="M8.41615 7.5013C8.61207 6.94436 8.99877 6.47472 9.50778 6.17558C10.0168 5.87643 10.6152 5.76708 11.1971 5.8669C11.779 5.96671 12.3068 6.26924 12.687 6.72091C13.0673 7.17258 13.2754 7.74424 13.2745 8.33464C13.2745 10.0013 10.7745 10.8346 10.7745 10.8346M10.8411 14.168H10.8495M19.1745 10.0013C19.1745 14.6037 15.4435 18.3346 10.8411 18.3346C6.23877 18.3346 2.50781 14.6037 2.50781 10.0013C2.50781 5.39893 6.23877 1.66797 10.8411 1.66797C15.4435 1.66797 19.1745 5.39893 19.1745 10.0013Z" stroke="white" stroke-width="1.67" stroke-linecap="round" stroke-linejoin="round"/>
</g>
<defs>
<clipPath id="clip0_3263_181141">
<rect width="20" height="20" fill="white" transform="translate(0.841797)"/>
</clipPath>
</defs>
</svg>
