<svg  width="124" height="61" viewBox="0 0 124 51" fill="none" xmlns="http://www.w3.org/2000/svg">
<g clip-path="url(#clip0_1642_141921)">
<path fill-rule="evenodd" clip-rule="evenodd" d="M17.3496 15.3594H24.8008C28.8014 15.3594 30.3093 17.4272 30.0698 20.4746C29.6884 25.4991 26.7168 28.2744 22.7783 28.2744H20.7914C20.2503 28.2744 19.8866 28.6372 19.7446 29.6348L18.902 35.394C18.8487 35.7658 18.6536 35.9835 18.3697 36.0107H13.6861C13.2426 36.0107 13.0918 35.6661 13.2071 34.9224L16.0545 16.4477C16.1699 15.7131 16.5602 15.3594 17.3496 15.3594Z" fill="#009EE3"/>
<path fill-rule="evenodd" clip-rule="evenodd" d="M49.6926 15.013C52.203 15.013 54.527 16.4097 54.2077 19.8833C53.8263 24.01 51.6619 26.2955 48.2468 26.3045H45.2663C44.8405 26.3045 44.6276 26.6583 44.5212 27.3929L43.9446 31.1386C43.8559 31.7009 43.572 31.9821 43.1551 31.9821H40.3787C39.9352 31.9821 39.7844 31.6918 39.8819 31.0479L42.1705 16.0197C42.2858 15.276 42.5519 15.0039 43.0487 15.0039H49.6926V15.013ZM45.1687 23.0577H47.4307C48.8411 23.0032 49.7814 22.0056 49.8789 20.2007C49.9322 19.0852 49.1959 18.2871 48.025 18.2961L45.8961 18.3052L45.1687 23.0577ZM61.7476 30.8393C62.0048 30.6035 62.2621 30.4856 62.2266 30.7758L62.1379 31.4742C62.0935 31.837 62.2355 32.0274 62.5637 32.0274H65.0296C65.4466 32.0274 65.6506 31.8551 65.7482 31.2021L67.265 21.4523C67.3448 20.9626 67.2206 20.7268 66.857 20.7268H64.1426C63.8942 20.7268 63.7789 20.8628 63.7168 21.2437L63.6192 21.8423C63.566 22.1507 63.4241 22.2142 63.2999 21.8968C62.8386 20.7812 61.6677 20.2824 60.0267 20.3277C56.2213 20.4093 53.6666 23.3569 53.3916 27.1389C53.1787 30.0684 55.2278 32.363 57.9333 32.363C59.8937 32.3539 60.7718 31.7644 61.7476 30.8393ZM59.6808 29.3428C58.0486 29.3428 56.9043 28.0096 57.1438 26.368C57.3833 24.7355 58.909 23.3932 60.5501 23.3932C62.1911 23.3932 63.3265 24.7264 63.087 26.368C62.8475 28.0005 61.3218 29.3428 59.6808 29.3428ZM72.0816 20.6905H69.5802C69.0657 20.6905 68.8528 21.0805 69.0213 21.5702L72.126 30.8574L69.0834 35.2743C68.8262 35.6462 69.0302 35.9817 69.385 35.9817H72.197C72.2324 35.9817 72.2591 35.9908 72.2945 35.9908C72.5961 35.9908 72.8711 35.8276 73.0308 35.5645L82.5754 21.5702C82.8681 21.144 82.735 20.6905 82.2472 20.6905H79.586C79.1336 20.6905 78.9474 20.8719 78.6901 21.2619L74.7073 27.1571L72.9332 21.2437C72.8268 20.881 72.5695 20.6905 72.0816 20.6905Z" fill="#113984"/>
<path fill-rule="evenodd" clip-rule="evenodd" d="M92.5012 15.013C95.0116 15.013 97.3356 16.4097 97.0163 19.8833C96.6349 24.01 94.4705 26.2955 91.0554 26.3045H88.0749C87.6491 26.3045 87.4362 26.6583 87.3298 27.3929L86.7532 31.1386C86.6645 31.7009 86.3806 31.9821 85.9637 31.9821H83.1873C82.7438 31.9821 82.593 31.6918 82.6905 31.0479L84.988 16.0197C85.1033 15.2851 85.3694 15.0039 85.8662 15.0039L92.5012 15.013ZM87.9862 23.0577H90.2482C91.6586 23.0032 92.5988 22.0056 92.6964 20.2007C92.7496 19.0852 92.0134 18.2871 90.8425 18.2961L88.7136 18.3052L87.9862 23.0577ZM104.556 30.8393C104.813 30.6035 105.071 30.4856 105.035 30.7758L104.946 31.4742C104.902 31.837 105.044 32.0274 105.372 32.0274H107.838C108.255 32.0274 108.459 31.8551 108.557 31.2021L110.074 21.4523C110.153 20.9626 110.029 20.7268 109.666 20.7268H106.96C106.712 20.7268 106.596 20.8628 106.534 21.2437L106.437 21.8423C106.383 22.1507 106.242 22.2142 106.117 21.8968C105.656 20.7812 104.485 20.2824 102.853 20.3277C99.0476 20.4093 96.4929 23.3569 96.218 27.1389C96.0051 30.0684 98.0541 32.363 100.76 32.363C102.72 32.363 103.598 31.7735 104.583 30.8484L104.556 30.8393ZM102.498 29.3428C100.866 29.3428 99.7218 28.0096 99.9613 26.368C100.201 24.7355 101.727 23.3932 103.368 23.3932C105 23.3932 106.144 24.7264 105.904 26.368C105.665 28.0005 104.13 29.3428 102.498 29.3428ZM113.861 32.0365H111.014C111.005 32.0365 111.005 32.0365 110.996 32.0365C110.81 32.0365 110.659 31.8823 110.659 31.6918C110.659 31.6737 110.659 31.6556 110.659 31.6465L113.161 15.4574C113.214 15.2306 113.409 15.0674 113.631 15.0674H116.478C116.487 15.0674 116.487 15.0674 116.496 15.0674C116.682 15.0674 116.833 15.2216 116.833 15.412C116.833 15.4302 116.833 15.4483 116.833 15.4574L114.331 31.6465C114.287 31.8732 114.092 32.0365 113.861 32.0365Z" fill="#009EE3"/>
<path fill-rule="evenodd" clip-rule="evenodd" d="M12.6931 9H20.1532C22.2554 9 24.748 9.07256 26.4068 10.569C27.5156 11.5757 28.1011 13.172 27.968 14.8952C27.5068 20.7178 24.1094 23.9738 19.5411 23.9738H15.8599C15.2301 23.9738 14.822 24.4001 14.6446 25.5428L13.6156 32.2271C13.5447 32.6624 13.3673 32.9164 13.0391 32.9436H8.44417C7.93855 32.9436 7.75227 32.5536 7.88533 31.6829L11.194 10.2697C11.3271 9.40813 11.7883 9 12.6931 9Z" fill="#113984"/>
<path fill-rule="evenodd" clip-rule="evenodd" d="M14.752 24.8707L16.0559 16.4451C16.1712 15.7104 16.5615 15.3477 17.351 15.3477H24.8022C26.0352 15.3477 27.0286 15.5472 27.8092 15.91C27.0641 21.0887 23.7821 23.9728 19.4888 23.9728H15.8253C15.3285 23.9728 14.9737 24.2267 14.752 24.8707Z" fill="#172C70"/>
</g>
<defs>
<clipPath id="clip0_1642_141921">
<rect width="124" height="61" fill="white" transform="translate(7.8418 9)"/>
</clipPath>
</defs>
</svg>
