<svg width="124" height="61" viewBox="0 0 124 61" fill="none" xmlns="http://www.w3.org/2000/svg">
<path fill-rule="evenodd" clip-rule="evenodd" d="M109.842 31.1484C109.842 24.4832 106.57 19.2224 100.314 19.2224C94.0351 19.2224 90.2332 24.4821 90.2332 31.0952C90.2332 38.9325 94.7192 42.8897 101.158 42.8897C104.299 42.8897 106.674 42.1875 108.468 41.1977V35.9901C106.674 36.8758 104.615 37.4217 102.003 37.4217C99.4429 37.4217 97.1734 36.536 96.883 33.4645H109.786C109.786 33.1247 109.838 31.7724 109.838 31.1473L109.842 31.1484ZM96.8164 28.676C96.8164 25.7336 98.637 24.5104 100.3 24.5104C101.91 24.5104 103.626 25.7336 103.626 28.676H96.8164ZM80.0604 19.2247C77.4741 19.2247 75.8131 20.4218 74.8879 21.2554L74.5435 19.6415H68.7271V50L75.3241 48.6205L75.3505 41.252C76.301 41.9293 77.6991 42.892 80.0225 42.892C84.7462 42.892 89.0474 39.1545 89.0474 30.889C89.021 23.3382 84.667 19.2236 80.0478 19.2236L80.0604 19.2247ZM78.4763 37.1646C76.9197 37.1646 75.9968 36.6176 75.362 35.9414L75.3356 26.2806C76.022 25.5252 76.9714 25.0053 78.4763 25.0053C80.8777 25.0053 82.5399 27.6612 82.5399 31.0714C82.5399 34.5597 80.9041 37.1646 78.4763 37.1646ZM59.6505 17.689L66.274 16.2846V11L59.6505 12.3795V17.689ZM59.6505 19.6675H66.274V42.4492H59.6505V19.6675ZM52.5507 21.5929L52.1283 19.6675H46.4277V42.4514H53.0248V27.01C54.5813 25.0053 57.2204 25.37 58.0388 25.6566V19.6687C57.194 19.3561 54.1073 18.783 52.5495 21.594L52.5507 21.5929ZM39.3566 14.0047L32.918 15.3604L32.8916 36.2155C32.8916 40.0685 35.821 42.9067 39.7262 42.9067C41.89 42.9067 43.473 42.516 44.3443 42.046V36.7603C43.4994 37.1 39.3302 38.296 39.3302 34.443V25.2137H44.3443V19.6675H39.3279L39.3566 14.0047ZM21.518 26.2682C21.518 25.2522 22.3629 24.8638 23.7611 24.8638C26.0433 24.9117 28.2831 25.4816 30.3042 26.5287V20.423C28.1139 19.5622 25.9501 19.2258 23.7611 19.2258C18.4038 19.2258 14.8418 21.9859 14.8418 26.5943C14.8418 33.7805 24.87 32.6343 24.87 35.7342C24.87 36.9313 23.8139 37.322 22.3365 37.322C20.1463 37.322 17.3488 36.4364 15.1322 35.2381V41.4333C17.5865 42.4752 20.0682 42.9056 22.3365 42.9056C27.8258 42.9056 31.6002 40.2237 31.6002 35.5632C31.5738 27.8051 21.518 29.1845 21.518 26.2682Z" fill="#6772E5"/>
</svg>
