<svg width="21" height="20" viewBox="0 0 21 20" fill="none" xmlns="http://www.w3.org/2000/svg">
<path d="M10.8408 2.5V17.5M10.8408 2.5H16.6742C17.1162 2.5 17.5401 2.67559 17.8527 2.98816C18.1652 3.30072 18.3408 3.72464 18.3408 4.16667V15.8333C18.3408 16.2754 18.1652 16.6993 17.8527 17.0118C17.5401 17.3244 17.1162 17.5 16.6742 17.5H10.8408V2.5ZM10.8408 2.5H5.00749C4.56546 2.5 4.14154 2.67559 3.82898 2.98816C3.51641 3.30072 3.34082 3.72464 3.34082 4.16667V15.8333C3.34082 16.2754 3.51641 16.6993 3.82898 17.0118C4.14154 17.3244 4.56546 17.5 5.00749 17.5H10.8408V2.5Z" stroke="#344054" stroke-width="1.67" stroke-linecap="round" stroke-linejoin="round"/>
</svg>
