<svg width="33" height="32" viewBox="0 0 33 32" fill="none" xmlns="http://www.w3.org/2000/svg">
<path d="M11.9886 1.05225C8.79125 2.16142 6.03391 4.26667 4.12153 7.05876C2.20915 9.85085 1.24253 13.1826 1.36366 16.5647C1.48478 19.9467 2.68727 23.2008 4.79449 25.8489C6.90171 28.4971 9.8026 30.3997 13.071 31.2773C15.7209 31.961 18.4971 31.991 21.1611 31.3648C23.5743 30.8227 25.8055 29.6632 27.6361 27.9998C29.5413 26.2156 30.9241 23.9459 31.6361 21.4348C32.4099 18.7039 32.5475 15.8321 32.0386 13.0398H17.1585V19.2123H25.7761C25.6038 20.1967 25.2348 21.1363 24.6909 21.9748C24.1471 22.8133 23.4397 23.5335 22.6111 24.0923C21.5588 24.7883 20.3725 25.2567 19.1286 25.4673C17.8809 25.6992 16.6012 25.6992 15.3535 25.4673C14.089 25.2058 12.8928 24.6839 11.8411 23.9348C10.1514 22.7387 8.88274 21.0396 8.21605 19.0798C7.53809 17.0832 7.53809 14.9188 8.21605 12.9223C8.69062 11.5228 9.47513 10.2486 10.5111 9.19475C11.6965 7.96662 13.1974 7.08874 14.8489 6.65744C16.5005 6.22614 18.2389 6.25808 19.8736 6.74975C21.1505 7.14173 22.3182 7.82659 23.2836 8.74975C24.2552 7.78308 25.2252 6.81392 26.1936 5.84225C26.6936 5.31975 27.2386 4.82225 27.7311 4.28725C26.2575 2.91594 24.5278 1.84889 22.6411 1.14725C19.2053 -0.100274 15.446 -0.1338 11.9886 1.05225Z" fill="white"/>
<path d="M11.9885 1.05249C15.4457 -0.134368 19.205 -0.101725 22.641 1.14499C24.528 1.8514 26.257 2.92358 27.7285 4.29999C27.2285 4.83499 26.701 5.33499 26.191 5.85499C25.221 6.82332 24.2518 7.78832 23.2835 8.74999C22.3181 7.82683 21.1504 7.14197 19.8735 6.74999C18.2394 6.25659 16.5011 6.22281 14.8491 6.65235C13.1971 7.08188 11.6953 7.95814 10.5085 9.18499C9.47259 10.2388 8.68807 11.513 8.21351 12.9125L3.03101 8.89999C4.88603 5.22139 8.09788 2.40755 11.9885 1.05249Z" fill="#E33629"/>
<path d="M1.65618 12.8754C1.93474 11.4949 2.39719 10.158 3.03118 8.90039L8.21368 12.9229C7.53572 14.9194 7.53572 17.0839 8.21368 19.0804C6.48702 20.4137 4.75952 21.7537 3.03118 23.1004C1.44406 19.9412 0.960016 16.3416 1.65618 12.8754Z" fill="#F8BD00"/>
<path d="M17.1586 13.0371H32.0386C32.5476 15.8294 32.4099 18.7013 31.6361 21.4321C30.9242 23.9433 29.5413 26.213 27.6361 27.9971C25.9636 26.6921 24.2836 25.3971 22.6111 24.0921C23.4403 23.5328 24.148 22.8118 24.6919 21.9724C25.2357 21.133 25.6045 20.1925 25.7761 19.2071H17.1586C17.1561 17.1521 17.1586 15.0946 17.1586 13.0371Z" fill="#587DBD"/>
<path d="M3.02856 23.1001C4.7569 21.7667 6.4844 20.4267 8.21106 19.0801C8.87908 21.0406 10.1496 22.7398 11.8411 23.9351C12.8961 24.6807 14.0949 25.1984 15.3611 25.4551C16.6087 25.6871 17.8884 25.6871 19.1361 25.4551C20.3801 25.2445 21.5663 24.7762 22.6186 24.0801C24.2911 25.3851 25.9711 26.6801 27.6436 27.9851C25.8133 29.6494 23.5821 30.8098 21.1686 31.3526C18.5046 31.9788 15.7284 31.9488 13.0786 31.2651C10.9828 30.7055 9.02525 29.7191 7.32856 28.3676C5.53272 26.9418 4.06595 25.145 3.02856 23.1001Z" fill="#319F43"/>
</svg>
