<svg width="25" height="24" viewBox="0 0 25 24" fill="none" xmlns="http://www.w3.org/2000/svg">
<path d="M0.841064 18.0003C0.841064 18.7076 1.12202 19.3858 1.62211 19.8859C2.12221 20.386 2.80049 20.667 3.50773 20.667H22.1744C22.8816 20.667 23.5599 20.386 24.06 19.8859C24.5601 19.3858 24.8411 18.7076 24.8411 18.0003V14.667H0.841064V18.0003Z" fill="#138808"/>
<path d="M24.8411 9.33301V5.99967C24.8411 5.29243 24.5601 4.61415 24.06 4.11406C23.5599 3.61396 22.8816 3.33301 22.1744 3.33301H3.50773C2.80049 3.33301 2.12221 3.61396 1.62211 4.11406C1.12202 4.61415 0.841064 5.29243 0.841064 5.99967L0.841064 9.33301H24.8411Z" fill="#FF9933"/>
<path d="M0.841064 9.11133H24.8411V14.8893H0.841064V9.11133Z" fill="#F7F7F7"/>
<path d="M12.841 14.6663C14.3137 14.6663 15.5076 13.4724 15.5076 11.9997C15.5076 10.5269 14.3137 9.33301 12.841 9.33301C11.3682 9.33301 10.1743 10.5269 10.1743 11.9997C10.1743 13.4724 11.3682 14.6663 12.841 14.6663Z" fill="#000080"/>
<path d="M12.8411 14.25C14.0837 14.25 15.0911 13.2426 15.0911 12C15.0911 10.7574 14.0837 9.75 12.8411 9.75C11.5984 9.75 10.5911 10.7574 10.5911 12C10.5911 13.2426 11.5984 14.25 12.8411 14.25Z" fill="#F7F7F7"/>
<path d="M12.9078 11.1662L12.8411 11.5995L12.7744 11.1662L12.8411 9.86621L12.9078 11.1662ZM12.2891 9.93888L12.5611 11.2115L12.7378 11.6129L12.6898 11.1775L12.2891 9.93888ZM11.7744 10.1522L12.3664 11.3109L12.6411 11.6529L12.4824 11.2442L11.7744 10.1522ZM11.3324 10.4909L12.2044 11.4575L12.5584 11.7169L12.2991 11.3629L11.3324 10.4909ZM10.9938 10.9329L12.0858 11.6409L12.4944 11.7995L12.1524 11.5249L10.9938 10.9329ZM10.7804 11.4475L12.0191 11.8482L12.4544 11.8962L12.0531 11.7195L10.7804 11.4475ZM10.7078 11.9995L12.0078 12.0662L12.4411 11.9995L12.0078 11.9329L10.7078 11.9995ZM10.7804 12.5515L12.0531 12.2795L12.4544 12.1029L12.0191 12.1509L10.7804 12.5515ZM10.9938 13.0662L12.1524 12.4742L12.4944 12.1995L12.0858 12.3582L10.9938 13.0662ZM11.3324 13.5082L12.2991 12.6362L12.5584 12.2822L12.2044 12.5415L11.3324 13.5082ZM11.7744 13.8469L12.4824 12.7549L12.6411 12.3462L12.3664 12.6882L11.7744 13.8469ZM12.2891 14.0602L12.6898 12.8215L12.7378 12.3862L12.5611 12.7875L12.2891 14.0602ZM12.8411 14.1329L12.9078 12.8329L12.8411 12.3995L12.7744 12.8329L12.8411 14.1329ZM13.3931 14.0602L13.1211 12.7875L12.9444 12.3862L12.9924 12.8215L13.3931 14.0602ZM13.9078 13.8469L13.3158 12.6882L13.0411 12.3462L13.1998 12.7549L13.9078 13.8469ZM14.3498 13.5082L13.4778 12.5415L13.1238 12.2822L13.3831 12.6362L14.3498 13.5082ZM14.6884 13.0662L13.5964 12.3582L13.1878 12.1995L13.5298 12.4742L14.6884 13.0662ZM14.9018 12.5515L13.6631 12.1509L13.2278 12.1029L13.6291 12.2795L14.9018 12.5515ZM14.9744 11.9995L13.6744 11.9329L13.2411 11.9995L13.6744 12.0662L14.9744 11.9995ZM14.9018 11.4475L13.6291 11.7195L13.2278 11.8962L13.6631 11.8482L14.9018 11.4475ZM14.6884 10.9329L13.5298 11.5249L13.1878 11.7995L13.5964 11.6409L14.6884 10.9329ZM14.3498 10.4909L13.3831 11.3629L13.1238 11.7169L13.4778 11.4575L14.3498 10.4909ZM13.9078 10.1522L13.1998 11.2442L13.0411 11.6529L13.3158 11.3109L13.9078 10.1522ZM13.3931 9.93888L12.9924 11.1775L12.9444 11.6129L13.1211 11.2115L13.3931 9.93888Z" fill="#6666B3"/>
<path d="M12.5479 9.90632C12.6215 9.90632 12.6812 9.84662 12.6812 9.77298C12.6812 9.69934 12.6215 9.63965 12.5479 9.63965C12.4742 9.63965 12.4146 9.69934 12.4146 9.77298C12.4146 9.84662 12.4742 9.90632 12.5479 9.90632Z" fill="#000080"/>
<path d="M11.9812 10.0587C12.0549 10.0587 12.1146 9.99896 12.1146 9.92533C12.1146 9.85169 12.0549 9.79199 11.9812 9.79199C11.9076 9.79199 11.8479 9.85169 11.8479 9.92533C11.8479 9.99896 11.9076 10.0587 11.9812 10.0587Z" fill="#000080"/>
<path d="M11.4732 10.3507C11.5468 10.3507 11.6065 10.291 11.6065 10.2173C11.6065 10.1437 11.5468 10.084 11.4732 10.084C11.3995 10.084 11.3398 10.1437 11.3398 10.2173C11.3398 10.291 11.3995 10.3507 11.4732 10.3507Z" fill="#000080"/>
<path d="M11.0584 10.7657C11.132 10.7657 11.1917 10.706 11.1917 10.6324C11.1917 10.5587 11.132 10.499 11.0584 10.499C10.9847 10.499 10.925 10.5587 10.925 10.6324C10.925 10.706 10.9847 10.7657 11.0584 10.7657Z" fill="#000080"/>
<path d="M10.7659 11.2735C10.8395 11.2735 10.8992 11.2138 10.8992 11.1402C10.8992 11.0665 10.8395 11.0068 10.7659 11.0068C10.6923 11.0068 10.6326 11.0665 10.6326 11.1402C10.6326 11.2138 10.6923 11.2735 10.7659 11.2735Z" fill="#000080"/>
<path d="M10.6138 11.8399C10.6874 11.8399 10.7471 11.7802 10.7471 11.7066C10.7471 11.6329 10.6874 11.5732 10.6138 11.5732C10.5402 11.5732 10.4805 11.6329 10.4805 11.7066C10.4805 11.7802 10.5402 11.8399 10.6138 11.8399Z" fill="#000080"/>
<path d="M10.6138 12.4268C10.6874 12.4268 10.7471 12.3671 10.7471 12.2935C10.7471 12.2199 10.6874 12.1602 10.6138 12.1602C10.5402 12.1602 10.4805 12.2199 10.4805 12.2935C10.4805 12.3671 10.5402 12.4268 10.6138 12.4268Z" fill="#000080"/>
<path d="M10.7659 12.9932C10.8395 12.9932 10.8992 12.9335 10.8992 12.8599C10.8992 12.7863 10.8395 12.7266 10.7659 12.7266C10.6923 12.7266 10.6326 12.7863 10.6326 12.8599C10.6326 12.9335 10.6923 12.9932 10.7659 12.9932Z" fill="#000080"/>
<path d="M11.0584 13.502C11.132 13.502 11.1917 13.4423 11.1917 13.3687C11.1917 13.295 11.132 13.2354 11.0584 13.2354C10.9847 13.2354 10.925 13.295 10.925 13.3687C10.925 13.4423 10.9847 13.502 11.0584 13.502Z" fill="#000080"/>
<path d="M11.4732 13.9161C11.5468 13.9161 11.6065 13.8564 11.6065 13.7827C11.6065 13.7091 11.5468 13.6494 11.4732 13.6494C11.3995 13.6494 11.3398 13.7091 11.3398 13.7827C11.3398 13.8564 11.3995 13.9161 11.4732 13.9161Z" fill="#000080"/>
<path d="M11.9812 14.209C12.0549 14.209 12.1146 14.1494 12.1146 14.0757C12.1146 14.0021 12.0549 13.9424 11.9812 13.9424C11.9076 13.9424 11.8479 14.0021 11.8479 14.0757C11.8479 14.1494 11.9076 14.209 11.9812 14.209Z" fill="#000080"/>
<path d="M12.5479 14.3614C12.6215 14.3614 12.6812 14.3017 12.6812 14.2281C12.6812 14.1544 12.6215 14.0947 12.5479 14.0947C12.4742 14.0947 12.4146 14.1544 12.4146 14.2281C12.4146 14.3017 12.4742 14.3614 12.5479 14.3614Z" fill="#000080"/>
<path d="M13.1346 14.3614C13.2082 14.3614 13.2679 14.3017 13.2679 14.2281C13.2679 14.1544 13.2082 14.0947 13.1346 14.0947C13.0609 14.0947 13.0012 14.1544 13.0012 14.2281C13.0012 14.3017 13.0609 14.3614 13.1346 14.3614Z" fill="#000080"/>
<path d="M13.7012 14.209C13.7748 14.209 13.8345 14.1494 13.8345 14.0757C13.8345 14.0021 13.7748 13.9424 13.7012 13.9424C13.6276 13.9424 13.5679 14.0021 13.5679 14.0757C13.5679 14.1494 13.6276 14.209 13.7012 14.209Z" fill="#000080"/>
<path d="M14.209 13.9161C14.2827 13.9161 14.3424 13.8564 14.3424 13.7827C14.3424 13.7091 14.2827 13.6494 14.209 13.6494C14.1354 13.6494 14.0757 13.7091 14.0757 13.7827C14.0757 13.8564 14.1354 13.9161 14.209 13.9161Z" fill="#000080"/>
<path d="M14.6236 13.502C14.6972 13.502 14.7569 13.4423 14.7569 13.3687C14.7569 13.295 14.6972 13.2354 14.6236 13.2354C14.5499 13.2354 14.4902 13.295 14.4902 13.3687C14.4902 13.4423 14.5499 13.502 14.6236 13.502Z" fill="#000080"/>
<path d="M14.9165 12.9932C14.9902 12.9932 15.0499 12.9335 15.0499 12.8599C15.0499 12.7863 14.9902 12.7266 14.9165 12.7266C14.8429 12.7266 14.7832 12.7863 14.7832 12.8599C14.7832 12.9335 14.8429 12.9932 14.9165 12.9932Z" fill="#000080"/>
<path d="M15.0684 12.4268C15.142 12.4268 15.2017 12.3671 15.2017 12.2935C15.2017 12.2199 15.142 12.1602 15.0684 12.1602C14.9948 12.1602 14.9351 12.2199 14.9351 12.2935C14.9351 12.3671 14.9948 12.4268 15.0684 12.4268Z" fill="#000080"/>
<path d="M15.0684 11.8399C15.142 11.8399 15.2017 11.7802 15.2017 11.7066C15.2017 11.6329 15.142 11.5732 15.0684 11.5732C14.9948 11.5732 14.9351 11.6329 14.9351 11.7066C14.9351 11.7802 14.9948 11.8399 15.0684 11.8399Z" fill="#000080"/>
<path d="M14.9165 11.2735C14.9902 11.2735 15.0499 11.2138 15.0499 11.1402C15.0499 11.0665 14.9902 11.0068 14.9165 11.0068C14.8429 11.0068 14.7832 11.0665 14.7832 11.1402C14.7832 11.2138 14.8429 11.2735 14.9165 11.2735Z" fill="#000080"/>
<path d="M14.6236 10.7657C14.6972 10.7657 14.7569 10.706 14.7569 10.6324C14.7569 10.5587 14.6972 10.499 14.6236 10.499C14.5499 10.499 14.4902 10.5587 14.4902 10.6324C14.4902 10.706 14.5499 10.7657 14.6236 10.7657Z" fill="#000080"/>
<path d="M14.209 10.3507C14.2827 10.3507 14.3424 10.291 14.3424 10.2173C14.3424 10.1437 14.2827 10.084 14.209 10.084C14.1354 10.084 14.0757 10.1437 14.0757 10.2173C14.0757 10.291 14.1354 10.3507 14.209 10.3507Z" fill="#000080"/>
<path d="M13.7012 10.0587C13.7748 10.0587 13.8345 9.99896 13.8345 9.92533C13.8345 9.85169 13.7748 9.79199 13.7012 9.79199C13.6276 9.79199 13.5679 9.85169 13.5679 9.92533C13.5679 9.99896 13.6276 10.0587 13.7012 10.0587Z" fill="#000080"/>
<path d="M13.1346 9.90632C13.2082 9.90632 13.2679 9.84662 13.2679 9.77298C13.2679 9.69934 13.2082 9.63965 13.1346 9.63965C13.0609 9.63965 13.0012 9.69934 13.0012 9.77298C13.0012 9.84662 13.0609 9.90632 13.1346 9.90632Z" fill="#000080"/>
<path d="M12.8412 12.6004C13.1726 12.6004 13.4412 12.3318 13.4412 12.0004C13.4412 11.669 13.1726 11.4004 12.8412 11.4004C12.5098 11.4004 12.2412 11.669 12.2412 12.0004C12.2412 12.3318 12.5098 12.6004 12.8412 12.6004Z" fill="#000080"/>
</svg>
