<svg width="33" height="32" viewBox="0 0 33 32" fill="none" xmlns="http://www.w3.org/2000/svg">
<path d="M29.8411 0.750116H3.84106C3.25114 0.744112 2.68293 0.972377 2.26111 1.38482C1.83929 1.79727 1.59832 2.36021 1.59106 2.95012V29.0551C1.59963 29.6442 1.84118 30.2058 2.26286 30.6172C2.68453 31.0285 3.252 31.2561 3.84106 31.2501H29.8411C30.431 31.2548 30.9988 31.0258 31.4205 30.6131C31.8421 30.2003 32.0832 29.6375 32.0911 29.0476V2.94262C32.0805 2.35444 31.8383 1.79418 31.417 1.38363C30.9957 0.973077 30.4293 0.74541 29.8411 0.750116Z" fill="#0076B2"/>
<path d="M6.10609 12.1826H10.6336V26.7501H6.10609V12.1826ZM8.37109 4.93262C8.89038 4.93262 9.39799 5.08663 9.82973 5.37518C10.2615 5.66373 10.5979 6.07385 10.7965 6.55365C10.9951 7.03345 11.047 7.56138 10.9455 8.07065C10.844 8.57992 10.5937 9.04764 10.2264 9.41466C9.859 9.78167 9.39104 10.0315 8.88167 10.1325C8.37231 10.2335 7.84443 10.1811 7.36482 9.98208C6.88521 9.78302 6.47541 9.44618 6.18727 9.01417C5.89913 8.58216 5.7456 8.0744 5.74609 7.55512C5.74676 6.85936 6.02361 6.19232 6.51582 5.70058C7.00803 5.20884 7.67533 4.93262 8.37109 4.93262ZM13.4736 12.1826H17.8136V14.1826H17.8736C18.4786 13.0376 19.9536 11.8301 22.1561 11.8301C26.7411 11.8201 27.5911 14.8376 27.5911 18.7501V26.7501H23.0636V19.6626C23.0636 17.9751 23.0336 15.8026 20.7111 15.8026C18.3886 15.8026 17.9936 17.6426 17.9936 19.5526V26.7501H13.4736V12.1826Z" fill="white"/>
</svg>
