<svg width="33" height="32" viewBox="0 0 33 32" fill="none" xmlns="http://www.w3.org/2000/svg">
<path d="M18.1122 1.06142C17.8422 1.30142 15.7422 5.46892 15.7422 5.46892L14.1797 11.7714L20.2597 11.2139C20.2597 11.2139 25.3172 1.80892 25.4197 1.59142C25.6022 1.19642 25.6997 1.03392 25.0022 1.03392C24.3047 1.03142 18.3647 0.836421 18.1122 1.06142Z" fill="#176CC7"/>
<path d="M21.2594 10.8227C20.9569 10.6602 12.0469 10.5202 11.8369 10.8227C11.6469 11.0977 11.6744 12.3552 11.7669 12.5177C11.8594 12.6802 14.8544 14.0727 14.8544 14.0727L14.8519 14.5802C14.8519 14.5802 15.0169 14.9777 16.6869 14.9777C18.3569 14.9777 18.5294 14.6402 18.5294 14.6402L18.5444 14.1277C18.5444 14.1277 21.1669 12.8177 21.3044 12.7027C21.4444 12.5852 21.5619 10.9852 21.2594 10.8227ZM18.5144 12.9052C18.5144 12.9052 18.5069 12.5552 18.3344 12.4677C18.1619 12.3802 15.3844 12.3952 15.1494 12.4077C14.9144 12.4202 14.9144 12.8402 14.9144 12.8402L13.0144 11.9152V11.7302L20.0894 11.7802L20.1019 11.9902L18.5144 12.9052Z" fill="#FCC417"/>
<path d="M15.6552 12.793C15.4202 12.793 15.2852 13.038 15.2852 13.4605C15.2852 13.8555 15.4202 14.188 15.7177 14.163C15.9627 14.143 16.0477 13.768 16.0252 13.4355C16.0027 13.0405 15.9527 12.793 15.6552 12.793Z" fill="#FDFFFF"/>
<path d="M8.08594 22.6785C8.08594 28.6685 13.5009 31.336 17.1009 31.2085C21.0709 31.066 25.8259 27.971 25.5384 22.256C25.2659 16.841 20.7109 14.2735 16.7659 14.301C12.1809 14.3335 8.08594 17.446 8.08594 22.6785Z" fill="#FCC417"/>
<path d="M16.9724 30.1666C16.9099 30.1666 16.8449 30.1666 16.7824 30.1641C14.9074 30.1016 13.0549 29.3116 11.6999 27.9991C10.2499 26.5941 9.45494 24.6941 9.46494 22.6516C9.48744 17.6641 13.8474 15.3516 16.8049 15.3516H16.8299C20.8374 15.3691 24.1274 18.4841 24.2199 22.7066C24.2599 24.5866 23.4899 26.5591 21.9799 28.0441C20.5699 29.4266 18.6999 30.1666 16.9724 30.1666ZM16.7999 16.1816C14.1474 16.1816 10.2249 18.3516 10.2149 22.6516C10.2074 25.8666 12.6974 29.1716 16.8449 29.3116C18.4249 29.3616 20.0524 28.7566 21.3674 27.4641C22.7324 26.1216 23.4999 24.3916 23.4724 22.7166C23.4124 19.0841 20.4424 16.1941 16.8374 16.1791C16.8274 16.1791 16.8074 16.1816 16.7999 16.1816Z" fill="#FA912C"/>
<path d="M15.2945 15.1529C15.122 14.9154 13.167 14.9604 11.3195 16.7654C9.53703 18.5079 9.34453 20.1504 9.68703 20.2454C10.0745 20.3529 10.547 18.6129 12.1795 17.1504C13.6795 15.8104 15.6395 15.6254 15.2945 15.1529Z" fill="#FEFFFA"/>
<path d="M22.8582 21.6187C22.2557 21.7037 22.8807 23.5087 21.4832 25.5287C20.2707 27.2812 18.8957 27.9162 19.0557 28.3012C19.2707 28.8162 21.4732 27.5337 22.4932 25.4437C23.4182 23.5512 23.3082 21.5537 22.8582 21.6187Z" fill="#FEFFFA"/>
<path d="M14.8043 19.2536C14.6743 19.4461 14.7918 21.1336 14.8693 21.2086C15.0193 21.3586 16.1593 20.8211 16.1593 20.8211L16.1168 25.3336C16.1168 25.3336 15.2793 25.3236 15.1918 25.3561C15.0193 25.4211 15.0418 27.1611 15.1693 27.2461C15.2968 27.3311 18.7143 27.3761 18.8443 27.2036C18.9743 27.0311 18.9418 25.5086 18.8818 25.4386C18.7743 25.3086 17.9568 25.3611 17.9568 25.3611C17.9568 25.3611 18.0268 18.7161 18.0043 18.5036C17.9818 18.2911 17.7468 18.1586 17.4668 18.2236C17.1868 18.2886 14.8868 19.1286 14.8043 19.2536Z" fill="#FA912C"/>
<path d="M7.21788 0.928151C7.06038 1.07315 13.0829 11.7982 13.0829 11.7982C13.0829 11.7982 14.0929 11.9282 16.3479 11.9482C18.6029 11.9682 19.7204 11.8182 19.7204 11.8182C19.7204 11.8182 15.0379 1.03565 14.7579 0.928151C14.6204 0.873151 12.7654 0.853151 10.9529 0.833151C9.13788 0.810651 7.36788 0.788151 7.21788 0.928151Z" fill="#2E9DF4"/>
</svg>
