<svg width="33" height="32" viewBox="0 0 33 32" fill="none" xmlns="http://www.w3.org/2000/svg">
<path d="M18.1122 1.06142C17.8422 1.30142 15.7422 5.46892 15.7422 5.46892L14.1797 11.7714L20.2597 11.2139C20.2597 11.2139 25.3172 1.80892 25.4197 1.59142C25.6022 1.19642 25.6997 1.03392 25.0022 1.03392C24.3047 1.03142 18.3647 0.836421 18.1122 1.06142Z" fill="#176CC7"/>
<path d="M21.2596 10.8227C20.9571 10.6602 12.0471 10.5202 11.8371 10.8227C11.6471 11.0977 11.7546 12.5402 11.8271 12.7127C11.9571 13.0127 14.8346 14.3202 14.8346 14.3202L14.7796 14.9152C14.7796 14.9152 15.0146 14.9752 16.6871 14.9752C18.3596 14.9752 18.6896 14.8902 18.6896 14.8902L18.6946 14.3527C18.6946 14.3527 21.2846 13.0927 21.4146 12.9177C21.5246 12.7727 21.5621 10.9852 21.2596 10.8227ZM18.6071 13.1027C18.6071 13.1027 18.6896 12.7352 18.5171 12.6502C18.3446 12.5627 15.3846 12.6027 15.1496 12.6152C14.9146 12.6277 14.9146 13.0477 14.9146 13.0477L13.0146 11.9152V11.7302L20.0896 11.7802L20.1021 11.9902L18.6071 13.1027Z" fill="#CECDD2"/>
<path d="M15.6552 12.793C15.4202 12.793 15.2852 13.038 15.2852 13.4605C15.2852 13.8555 15.4202 14.188 15.7177 14.163C15.9627 14.143 16.0477 13.768 16.0252 13.4355C16.0027 13.0405 15.9527 12.793 15.6552 12.793Z" fill="#FDFFFF"/>
<path d="M8.08203 22.9734C8.08203 28.9634 13.5945 31.5059 17.197 31.3984C21.3945 31.2734 25.8245 28.0884 25.537 22.3734C25.2645 16.9584 20.672 14.5509 16.727 14.5784C12.142 14.6134 8.08203 17.7409 8.08203 22.9734Z" fill="#CECDD2"/>
<path d="M16.9724 30.2838C16.9099 30.2838 16.8449 30.2838 16.7824 30.2813C14.9074 30.2188 13.0549 29.4288 11.6999 28.1163C10.2499 26.7113 9.45494 24.8113 9.46494 22.7688C9.48744 17.7813 13.8474 15.4688 16.8049 15.4688H16.8299C20.8374 15.4863 24.1274 18.6013 24.2199 22.8238C24.2599 24.7038 23.4899 26.6763 21.9799 28.1613C20.5699 29.5438 18.6999 30.2838 16.9724 30.2838ZM16.7999 16.2988C14.1474 16.2988 10.2249 18.4688 10.2149 22.7688C10.2074 25.9838 12.6974 29.2888 16.8449 29.4288C18.4249 29.4788 20.0524 28.8738 21.3674 27.5813C22.7324 26.2388 23.4999 24.5088 23.4724 22.8338C23.4074 19.2013 20.4374 16.3112 16.8324 16.2937C16.8274 16.2937 16.8074 16.2988 16.7999 16.2988Z" fill="#9B9B9D"/>
<path d="M15.3613 15.3668C15.1888 15.1293 13.4213 15.1968 11.5188 16.8343C9.62883 18.4618 9.34633 20.2618 9.68633 20.3568C10.0738 20.4643 10.5463 18.7243 12.1788 17.2618C13.6788 15.9243 15.7038 15.8393 15.3613 15.3668Z" fill="#FEFFFA"/>
<path d="M22.8114 21.9311C22.2089 22.0161 22.8339 23.8211 21.4364 25.8411C20.2239 27.5936 18.8489 28.2286 19.0089 28.6136C19.2239 29.1286 21.4264 27.8461 22.4464 25.7561C23.3689 23.8661 23.2589 21.8686 22.8114 21.9311Z" fill="#FEFFFA"/>
<path d="M7.21788 0.928151C7.06038 1.07315 13.0829 11.7982 13.0829 11.7982C13.0829 11.7982 14.0929 11.9282 16.3479 11.9482C18.6029 11.9682 19.7204 11.8182 19.7204 11.8182C19.7204 11.8182 15.0379 1.03565 14.7579 0.928151C14.6204 0.873151 12.7654 0.853151 10.9529 0.833151C9.13788 0.810651 7.36788 0.788151 7.21788 0.928151Z" fill="#2E9DF4"/>
<path d="M15.0523 21.5885C15.3123 21.591 15.5448 21.2385 15.7598 21.0235C16.2173 20.5635 16.6973 20.1985 17.2448 20.6935C18.5898 21.916 15.8898 23.156 14.8648 24.851C14.0998 26.116 13.9448 27.0885 14.1573 27.3485C14.3698 27.6085 19.5423 27.596 19.6123 27.466C19.6823 27.336 19.7548 25.6035 19.6348 25.521C19.5148 25.4385 16.9723 25.486 16.9723 25.486C16.9723 25.486 17.1848 24.991 18.0573 24.236C19.0148 23.4085 19.7823 22.271 19.5773 20.926C19.1523 18.146 16.3523 18.0435 15.1398 19.011C13.9573 19.9535 14.2123 21.5785 15.0523 21.5885Z" fill="#9B9B9D"/>
</svg>
