<svg width="141" height="140" viewBox="0 0 141 140" fill="none" xmlns="http://www.w3.org/2000/svg">
<rect x="0.34375" width="140" height="140" rx="70" fill="#EFF8FF"/>
<path d="M73.6784 99.9997H50.3451C44.0597 99.9997 40.917 99.9997 38.9644 98.047C37.0117 96.0943 37.0117 92.9517 37.0117 86.6663C37.0117 80.381 37.0117 77.2383 38.9644 75.2857C40.917 73.333 44.0597 73.333 50.3451 73.333H90.3451C96.6304 73.333 99.7731 73.333 101.726 75.2857C103.678 77.2383 103.678 80.381 103.678 86.6663C103.678 92.9517 103.678 96.0943 101.726 98.047C99.7731 99.9997 96.6304 99.9997 90.3451 99.9997H87.0117" stroke="#175CD3" stroke-width="5.625" stroke-linecap="round"/>
<path d="M67.0117 36.667H90.3451C96.6304 36.667 99.7731 36.667 101.726 38.6196C103.678 40.5722 103.678 43.7149 103.678 50.0003C103.678 56.2857 103.678 59.4284 101.726 61.381C99.7731 63.3337 96.6304 63.3337 90.3451 63.3337H50.3451C44.0597 63.3337 40.917 63.3337 38.9644 61.381C37.0117 59.4284 37.0117 56.2857 37.0117 50.0003C37.0117 43.7149 37.0117 40.5722 38.9644 38.6196C40.917 36.667 44.0597 36.667 50.3451 36.667H53.6784" stroke="#175CD3" stroke-width="5.625" stroke-linecap="round"/>
<path d="M67.0117 50H90.3451" stroke="#175CD3" stroke-width="5.625" stroke-linecap="round"/>
<path d="M50.3438 50H57.0104" stroke="#175CD3" stroke-width="5.625" stroke-linecap="round"/>
<path d="M67.0117 86.667H90.3451" stroke="#175CD3" stroke-width="5.625" stroke-linecap="round"/>
<path d="M50.3438 86.667H57.0104" stroke="#175CD3" stroke-width="5.625" stroke-linecap="round"/>
</svg>
