<svg width="14" height="14" viewBox="0 0 14 14" fill="none" xmlns="http://www.w3.org/2000/svg">
<path d="M2.64103 2.79997L11.041 11.2M0.841064 7C0.841064 7.78793 0.996259 8.56815 1.29779 9.2961C1.59932 10.0241 2.04127 10.6855 2.59842 11.2426C3.15558 11.7998 3.81701 12.2417 4.54496 12.5433C5.27292 12.8448 6.05313 13 6.84106 13C7.629 13 8.40921 12.8448 9.13717 12.5433C9.86512 12.2417 10.5266 11.7998 11.0837 11.2426C11.6409 10.6855 12.0828 10.0241 12.3843 9.2961C12.6859 8.56815 12.8411 7.78793 12.8411 7C12.8411 6.21207 12.6859 5.43185 12.3843 4.7039C12.0828 3.97595 11.6409 3.31451 11.0837 2.75736C10.5266 2.20021 9.86512 1.75825 9.13717 1.45672C8.40921 1.15519 7.629 1 6.84106 1C6.05313 1 5.27292 1.15519 4.54496 1.45672C3.81701 1.75825 3.15558 2.20021 2.59842 2.75736C2.04127 3.31451 1.59932 3.97595 1.29779 4.7039C0.996259 5.43185 0.841064 6.21207 0.841064 7Z" stroke="#F04438" stroke-width="1.2" stroke-linecap="round" stroke-linejoin="round"/>
</svg>
