<svg width="26" height="37" viewBox="0 0 26 37" fill="none" xmlns="http://www.w3.org/2000/svg">
<path d="M13.0192 36.5795C10.326 36.5682 8.02486 35.858 6.11577 34.4489C4.20668 33.0398 2.74645 30.9886 1.73509 28.2955C0.723722 25.6023 0.21804 22.358 0.21804 18.5625C0.21804 14.7784 0.723722 11.5455 1.73509 8.86364C2.75781 6.18182 4.22372 4.13636 6.13281 2.72727C8.05327 1.31818 10.3487 0.613635 13.0192 0.613635C15.6896 0.613635 17.9794 1.32386 19.8885 2.74432C21.7976 4.15341 23.2578 6.19886 24.2692 8.88068C25.2919 11.5511 25.8033 14.7784 25.8033 18.5625C25.8033 22.3693 25.2976 25.6193 24.2862 28.3125C23.2749 30.9943 21.8146 33.0455 19.9055 34.4659C17.9964 35.875 15.701 36.5795 13.0192 36.5795ZM13.0192 32.0284C15.3828 32.0284 17.2294 30.875 18.5589 28.5682C19.8999 26.2614 20.5703 22.9261 20.5703 18.5625C20.5703 15.6648 20.2635 13.2159 19.6499 11.2159C19.0476 9.20454 18.1783 7.68182 17.0419 6.64773C15.9169 5.60227 14.576 5.07954 13.0192 5.07954C10.6669 5.07954 8.82031 6.23863 7.4794 8.55682C6.13849 10.875 5.46236 14.2102 5.45099 18.5625C5.45099 21.4716 5.75213 23.9318 6.3544 25.9432C6.96804 27.9432 7.83736 29.4602 8.96236 30.4943C10.0874 31.517 11.4396 32.0284 13.0192 32.0284Z" fill="#D0D5DD"/>
</svg>
