<svg width="21" height="20" viewBox="0 0 21 20" fill="none" xmlns="http://www.w3.org/2000/svg">
<path d="M5.84115 7.50033V1.66699H15.8411V7.50033M5.84115 15.0003H4.17448C3.73245 15.0003 3.30853 14.8247 2.99597 14.5122C2.68341 14.1996 2.50781 13.7757 2.50781 13.3337V9.16699C2.50781 8.72497 2.68341 8.30104 2.99597 7.98848C3.30853 7.67592 3.73245 7.50033 4.17448 7.50033H17.5078C17.9498 7.50033 18.3738 7.67592 18.6863 7.98848C18.9989 8.30104 19.1745 8.72497 19.1745 9.16699V13.3337C19.1745 13.7757 18.9989 14.1996 18.6863 14.5122C18.3738 14.8247 17.9498 15.0003 17.5078 15.0003H15.8411M5.84115 11.667H15.8411V18.3337H5.84115V11.667Z" stroke="#344054" stroke-width="1.6" stroke-linecap="round" stroke-linejoin="round"/>
</svg>
