<svg width="17" height="16" viewBox="0 0 17 16" fill="none" xmlns="http://www.w3.org/2000/svg">
<path d="M11.7011 9.52663L8.84111 12.3933L5.98111 9.52663C5.85557 9.40109 5.68531 9.33056 5.50777 9.33056C5.33024 9.33056 5.15998 9.40109 5.03444 9.52663C4.9089 9.65216 4.83838 9.82242 4.83838 9.99996C4.83838 10.1775 4.9089 10.3478 5.03444 10.4733L8.36777 13.8066C8.42975 13.8691 8.50348 13.9187 8.58472 13.9526C8.66596 13.9864 8.7531 14.0038 8.84111 14.0038C8.92911 14.0038 9.01625 13.9864 9.09749 13.9526C9.17873 13.9187 9.25246 13.8691 9.31444 13.8066L12.6478 10.4733C12.7099 10.4111 12.7592 10.3373 12.7929 10.2561C12.8265 10.1749 12.8438 10.0879 12.8438 9.99996C12.8438 9.91205 12.8265 9.82501 12.7929 9.74379C12.7592 9.66258 12.7099 9.58878 12.6478 9.52663C12.5856 9.46447 12.5118 9.41516 12.4306 9.38152C12.3494 9.34788 12.2623 9.33056 12.1744 9.33056C12.0865 9.33056 11.9995 9.34788 11.9183 9.38152C11.8371 9.41516 11.7633 9.46447 11.7011 9.52663ZM5.98111 6.47329L8.84111 3.60663L11.7011 6.47329C11.7631 6.53578 11.8368 6.58537 11.9181 6.61922C11.9993 6.65307 12.0864 6.67049 12.1744 6.67049C12.2624 6.67049 12.3496 6.65307 12.4308 6.61922C12.5121 6.58537 12.5858 6.53578 12.6478 6.47329C12.7103 6.41132 12.7599 6.33758 12.7937 6.25634C12.8275 6.1751 12.845 6.08797 12.845 5.99996C12.845 5.91195 12.8275 5.82481 12.7937 5.74357C12.7599 5.66234 12.7103 5.5886 12.6478 5.52663L9.31444 2.19329C9.25246 2.13081 9.17873 2.08121 9.09749 2.04737C9.01625 2.01352 8.92911 1.99609 8.84111 1.99609C8.7531 1.99609 8.66596 2.01352 8.58472 2.04737C8.50348 2.08121 8.42975 2.13081 8.36777 2.19329L5.03444 5.52663C4.97228 5.58878 4.92297 5.66258 4.88933 5.74379C4.85569 5.82501 4.83838 5.91205 4.83838 5.99996C4.83838 6.17749 4.9089 6.34776 5.03444 6.47329C5.15998 6.59883 5.33024 6.66935 5.50777 6.66935C5.68531 6.66935 5.85557 6.59883 5.98111 6.47329Z" fill="#667085"/>
</svg>
