<svg width="21" height="20" viewBox="0 0 21 20" fill="none" xmlns="http://www.w3.org/2000/svg">
<path d="M3.50763 5.83333H16.841M8.50763 9.16667V14.1667M11.841 9.16667V14.1667M4.34096 5.83333L5.1743 15.8333C5.1743 16.2754 5.34989 16.6993 5.66245 17.0118C5.97501 17.3244 6.39894 17.5 6.84096 17.5H13.5076C13.9497 17.5 14.3736 17.3244 14.6861 17.0118C14.9987 16.6993 15.1743 16.2754 15.1743 15.8333L16.0076 5.83333M7.6743 5.83333V3.33333C7.6743 3.11232 7.76209 2.90036 7.91837 2.74408C8.07465 2.5878 8.28662 2.5 8.50763 2.5H11.841C12.062 2.5 12.2739 2.5878 12.4302 2.74408C12.5865 2.90036 12.6743 3.11232 12.6743 3.33333V5.83333" stroke="#667085" stroke-width="1.6" stroke-linecap="round" stroke-linejoin="round"/>
</svg>
