<svg width="21" height="20" viewBox="0 0 21 20" fill="none" xmlns="http://www.w3.org/2000/svg">
<path d="M4.92428 4.74996L15.4243 15.25M2.67432 10C2.67432 10.9849 2.86831 11.9602 3.24522 12.8701C3.62213 13.7801 4.17458 14.6069 4.87102 15.3033C5.56745 15.9997 6.39425 16.5522 7.30419 16.9291C8.21413 17.306 9.1894 17.5 10.1743 17.5C11.1592 17.5 12.1345 17.306 13.0444 16.9291C13.9544 16.5522 14.7812 15.9997 15.4776 15.3033C16.1741 14.6069 16.7265 13.7801 17.1034 12.8701C17.4803 11.9602 17.6743 10.9849 17.6743 10C17.6743 9.01509 17.4803 8.03982 17.1034 7.12987C16.7265 6.21993 16.1741 5.39314 15.4776 4.6967C14.7812 4.00026 13.9544 3.44781 13.0444 3.0709C12.1345 2.69399 11.1592 2.5 10.1743 2.5C9.1894 2.5 8.21413 2.69399 7.30419 3.0709C6.39425 3.44781 5.56745 4.00026 4.87102 4.6967C4.17458 5.39314 3.62213 6.21993 3.24522 7.12987C2.86831 8.03982 2.67432 9.01509 2.67432 10Z" stroke="#F04438" stroke-width="1.6" stroke-linecap="round" stroke-linejoin="round"/>
</svg>
