<svg width="141" height="140" viewBox="0 0 141 140" fill="none" xmlns="http://www.w3.org/2000/svg">
<rect x="0.34375" width="140" height="140" rx="70" fill="#EFF8FF"/>
<path fill-rule="evenodd" clip-rule="evenodd" d="M51.2155 30C51.3262 30 51.4384 30.0001 51.5522 30.0001L51.6898 30C52.9974 30 53.8389 29.9999 54.6616 30.0768C58.2012 30.4078 61.5588 31.7986 64.2957 34.0675C64.932 34.5948 65.527 35.1898 66.4517 36.1146L68.596 38.2593C71.7432 41.4061 72.9529 42.5808 74.3504 43.3583C75.1616 43.8096 76.0219 44.1661 76.9149 44.4205C78.4528 44.8589 80.1387 44.8838 84.589 44.8838H86.1689C90.9056 44.8837 94.7237 44.8836 97.7447 45.2635C100.875 45.6571 103.536 46.497 105.721 48.4627C106.087 48.7919 106.436 49.1402 106.765 49.5063C108.731 51.6917 109.571 54.352 109.964 57.4828C110.344 60.5038 110.344 64.3222 110.344 69.0586V77.6517C110.344 84.49 110.344 89.9062 109.774 94.1451C109.188 98.5079 107.952 102.039 105.167 104.823C102.382 107.608 98.8517 108.844 94.4889 109.43C90.25 110 84.8338 110 77.9955 110H62.6921C55.8538 110 50.4375 110 46.1986 109.43C41.8361 108.844 38.3051 107.608 35.5205 104.823C32.7359 102.039 31.5001 98.5079 30.9136 94.1451C30.3437 89.9062 30.3437 84.49 30.3438 77.6517V51.2084C30.3438 51.0947 30.3438 50.9825 30.3438 50.8718C30.3434 47.9102 30.3431 46.0255 30.6502 44.3976C31.9992 37.2479 37.5917 31.6554 44.7413 30.3065C46.3692 29.9993 48.254 29.9996 51.2155 30ZM51.5522 35.5815C48.1414 35.5815 46.8227 35.5936 45.7762 35.7911C40.8843 36.7141 37.0578 40.5405 36.1348 45.4324C35.9374 46.479 35.9252 47.7977 35.9252 51.2084V77.4419C35.9252 84.5369 35.9311 89.5777 36.4452 93.4017C36.9485 97.1453 37.8924 99.3019 39.4672 100.877C41.0419 102.451 43.1987 103.395 46.9423 103.899C50.7662 104.413 55.8068 104.419 62.9019 104.419H77.7856C84.8807 104.419 89.9214 104.413 93.7454 103.899C97.4891 103.395 99.6457 102.451 101.22 100.877C102.795 99.3019 103.739 97.1453 104.243 93.4017C104.756 89.5777 104.762 84.5369 104.762 77.4419V69.248C104.762 64.2776 104.757 60.8112 104.426 58.179C104.104 55.6167 103.512 54.2365 102.615 53.2387C102.417 53.019 102.209 52.81 101.989 52.6125C100.991 51.715 99.6111 51.1234 97.0485 50.8013C94.4163 50.4704 90.9503 50.4652 85.9795 50.4652H84.589C84.4505 50.4652 84.314 50.4652 84.1789 50.4652C80.2794 50.466 77.7648 50.4665 75.3849 49.7881C74.0799 49.4162 72.8223 48.8953 71.6368 48.2356C69.4742 47.0324 67.6963 45.2539 64.9395 42.4961C64.8442 42.4006 64.7475 42.3038 64.6496 42.2059L62.6021 40.1585C61.5481 39.1044 61.1448 38.7051 60.7337 38.3644C58.8611 36.812 56.5638 35.8605 54.1419 35.634C53.6103 35.5843 53.0428 35.5815 51.5522 35.5815ZM62.7891 68.0268C63.879 66.9369 65.6461 66.9369 66.7356 68.0268L70.3437 71.635L73.9519 68.0268C75.0418 66.9369 76.8089 66.9369 77.8984 68.0268C78.9882 69.1166 78.9882 70.8837 77.8984 71.9732L74.2905 75.5814L77.8984 79.1896C78.9882 80.2794 78.9882 82.0465 77.8984 83.136C76.8089 84.2259 75.0418 84.2259 73.9519 83.136L70.3437 79.5282L66.7356 83.136C65.6461 84.2259 63.879 84.2259 62.7891 83.136C61.6992 82.0465 61.6992 80.2794 62.7891 79.1896L66.3973 75.5814L62.7891 71.9732C61.6992 70.8837 61.6992 69.1166 62.7891 68.0268Z" fill="#175CD3"/>
</svg>
