<svg width="14" height="14" viewBox="0 0 14 14" fill="none" xmlns="http://www.w3.org/2000/svg">
<path d="M4.84115 7.00033L6.17448 8.33366L8.84115 5.66699M2.17446 3.80031C2.17446 3.41132 2.32898 3.03827 2.60404 2.76322C2.87909 2.48816 3.25214 2.33364 3.64113 2.33364H4.30779C4.69506 2.33342 5.06652 2.18004 5.34113 1.90697L5.80779 1.44031C5.94409 1.30324 6.10614 1.19447 6.28462 1.12025C6.4631 1.04602 6.6545 1.00781 6.8478 1.00781C7.04109 1.00781 7.23249 1.04602 7.41097 1.12025C7.58945 1.19447 7.7515 1.30324 7.88779 1.44031L8.35446 1.90697C8.62913 2.18031 9.00113 2.33364 9.38779 2.33364H10.0545C10.4434 2.33364 10.8165 2.48816 11.0916 2.76322C11.3666 3.03827 11.5211 3.41132 11.5211 3.80031V4.46697C11.5211 4.85364 11.6745 5.22564 11.9478 5.50031L12.4145 5.96697C12.5515 6.10327 12.6603 6.26532 12.7345 6.4438C12.8087 6.62228 12.847 6.81368 12.847 7.00697C12.847 7.20027 12.8087 7.39167 12.7345 7.57015C12.6603 7.74863 12.5515 7.91068 12.4145 8.04697L11.9478 8.51364C11.6747 8.78825 11.5214 9.15971 11.5211 9.54697V10.2136C11.5211 10.6026 11.3666 10.9757 11.0916 11.2507C10.8165 11.5258 10.4434 11.6803 10.0545 11.6803H9.38779C9.00053 11.6805 8.62907 11.8339 8.35446 12.107L7.88779 12.5736C7.7515 12.7107 7.58945 12.8195 7.41097 12.8937C7.23249 12.9679 7.04109 13.0061 6.8478 13.0061C6.6545 13.0061 6.4631 12.9679 6.28462 12.8937C6.10614 12.8195 5.94409 12.7107 5.80779 12.5736L5.34113 12.107C5.06652 11.8339 4.69506 11.6805 4.30779 11.6803H3.64113C3.25214 11.6803 2.87909 11.5258 2.60404 11.2507C2.32898 10.9757 2.17446 10.6026 2.17446 10.2136V9.54697C2.17424 9.15971 2.02086 8.78825 1.74779 8.51364L1.28113 8.04697C1.14406 7.91068 1.03529 7.74863 0.961066 7.57015C0.886843 7.39167 0.848633 7.20027 0.848633 7.00697C0.848633 6.81368 0.886843 6.62228 0.961066 6.4438C1.03529 6.26532 1.14406 6.10327 1.28113 5.96697L1.74779 5.50031C2.02086 5.2257 2.17424 4.85424 2.17446 4.46697V3.80031Z" stroke="#12B76A" stroke-width="1.2" stroke-linecap="round" stroke-linejoin="round"/>
</svg>
