  <svg
                          width="21"
                          height="20"
                          viewBox="0 0 21 20"
                          fill="none"
                          xmlns="http://www.w3.org/2000/svg"
                        >
                          <path
                            d="M18.2096 9.99986H18.8346C18.8346 9.8341 18.7688 9.67513 18.6516 9.55792C18.5343 9.44071 18.3754 9.37486 18.2096 9.37486V9.99986ZM15.9519 4.54924L16.3939 4.99122C16.5111 4.87401 16.5769 4.71504 16.5769 4.54929C16.5769 4.38354 16.5111 4.22457 16.3939 4.10736L15.9519 4.54924ZM10.5013 9.37486C10.3355 9.37486 10.1766 9.44071 10.0593 9.55792C9.94213 9.67513 9.87628 9.8341 9.87628 9.99986C9.87628 10.1656 9.94213 10.3246 10.0593 10.4418C10.1766 10.559 10.3355 10.6249 10.5013 10.6249V9.37486ZM13.3002 7.2009L12.8583 7.64288C12.9755 7.76004 13.1345 7.82585 13.3002 7.82585C13.466 7.82585 13.625 7.76004 13.7422 7.64288L13.3002 7.2009ZM17.5846 9.99986C17.5846 11.6386 17.0164 13.2267 15.9768 14.4935L16.9431 15.2865C18.1661 13.7962 18.8346 11.9278 18.8346 9.99986H17.5846ZM15.9768 14.4935C14.9371 15.7603 13.4904 16.6274 11.8832 16.9472L12.127 18.1731C14.0179 17.797 15.7199 16.7768 16.9431 15.2865L15.9768 14.4935ZM11.8832 16.9472C10.2759 17.2668 8.60748 17.0193 7.16222 16.2468L6.57295 17.3492C8.27325 18.2581 10.2361 18.5492 12.127 18.1731L11.8832 16.9472ZM7.16222 16.2468C5.71697 15.4743 4.58427 14.2246 3.95712 12.7106L2.80233 13.1889C3.54012 14.9701 4.87268 16.4404 6.57295 17.3492L7.16222 16.2468ZM3.95712 12.7106C3.33 11.1966 3.24724 9.51192 3.72295 7.94372L2.52681 7.5808C1.96714 9.42576 2.06451 11.4077 2.80233 13.1889L3.95712 12.7106ZM3.72295 7.94372C4.19867 6.37554 5.2034 5.02082 6.56597 4.11038L5.87149 3.07101C4.26845 4.1421 3.08649 5.73588 2.52681 7.5808L3.72295 7.94372ZM6.56597 4.11038C7.92855 3.19992 9.56467 2.79008 11.1956 2.9507L11.3181 1.70663C9.39937 1.51768 7.47452 1.99986 5.87149 3.07101L6.56597 4.11038ZM11.1956 2.9507C12.8264 3.11129 14.3512 3.83243 15.5099 4.99122L16.3939 4.10736C15.0306 2.74406 13.2368 1.89563 11.3181 1.70663L11.1956 2.9507ZM18.2096 9.37486H10.5013V10.6249H18.2096V9.37486ZM13.8346 9.99986C13.8346 11.8408 12.3422 13.3332 10.5013 13.3332V14.5832C13.0326 14.5832 15.0846 12.5312 15.0846 9.99986H13.8346ZM10.5013 13.3332C8.66035 13.3332 7.16795 11.8408 7.16795 9.99986H5.91795C5.91795 12.5312 7.97003 14.5832 10.5013 14.5832V13.3332ZM7.16795 9.99986C7.16795 8.15893 8.66035 6.66653 10.5013 6.66653V5.41653C7.97003 5.41653 5.91795 7.46861 5.91795 9.99986H7.16795ZM10.5013 6.66653C11.4219 6.66653 12.2544 7.03893 12.8583 7.64288L13.7422 6.75893C12.9135 5.93028 11.7668 5.41653 10.5013 5.41653V6.66653ZM15.5099 4.10736L12.8583 6.75893L13.7422 7.64288L16.3939 4.99122L15.5099 4.10736Z"
                            fill="#64748B"
                          />
                          <path
                            d="M10.5 4.7915C10.8452 4.7915 11.125 4.51168 11.125 4.1665C11.125 3.82133 10.8452 3.5415 10.5 3.5415C10.1548 3.5415 9.875 3.82133 9.875 4.1665C9.875 4.51168 10.1548 4.7915 10.5 4.7915Z"
                            fill="#64748B"
                          />
                          <path
                            d="M10.5 16.4585C10.8452 16.4585 11.125 16.1787 11.125 15.8335C11.125 15.4883 10.8452 15.2085 10.5 15.2085C10.1548 15.2085 9.875 15.4883 9.875 15.8335C9.875 16.1787 10.1548 16.4585 10.5 16.4585Z"
                            fill="#64748B"
                          />
                          <path
                            d="M6.81801 6.31694C7.06209 6.07286 7.06209 5.67714 6.81801 5.43306C6.57393 5.18898 6.17821 5.18898 5.93413 5.43306C5.69005 5.67714 5.69005 6.07286 5.93413 6.31694C6.17821 6.56102 6.57393 6.56102 6.81801 6.31694Z"
                            fill="#64748B"
                          />
                          <path
                            d="M5.29297 10C5.29297 9.65482 5.01315 9.375 4.66797 9.375C4.32279 9.375 4.04297 9.65482 4.04297 10C4.04297 10.3452 4.32279 10.625 4.66797 10.625C5.01315 10.625 5.29297 10.3452 5.29297 10Z"
                            fill="#64748B"
                          />
                          <path
                            d="M15.068 14.5669C15.3121 14.3229 15.3121 13.9271 15.068 13.6831C14.8239 13.439 14.4282 13.439 14.1841 13.6831C13.9401 13.9271 13.9401 14.3229 14.1841 14.5669C14.4282 14.811 14.8239 14.811 15.068 14.5669Z"
                            fill="#64748B"
                          />
                          <path
                            d="M6.81694 13.683C6.57286 13.4389 6.17714 13.4389 5.93306 13.683C5.68898 13.927 5.68898 14.3228 5.93306 14.5668C6.17714 14.8109 6.57286 14.8109 6.81694 14.5668C7.06102 14.3228 7.06102 13.927 6.81694 13.683Z"
                            fill="#64748B"
                          />
                        </svg>