<svg
                    width="48"
                    height="48"
                    viewBox="0 0 48 48"
                    fill="none"
                    xmlns="http://www.w3.org/2000/svg"
                  >
                    <path
                      d="M16.749 24.0002L21.5824 28.8335L31.249 19.1669M7.08347 12.4001C7.08347 10.9901 7.64362 9.63776 8.64069 8.64069C9.63776 7.64362 10.9901 7.08347 12.4001 7.08347H14.8168C16.2206 7.08267 17.5672 6.52668 18.5626 5.5368L20.2543 3.84514C20.7484 3.34827 21.3358 2.95397 21.9828 2.68491C22.6298 2.41585 23.3236 2.27734 24.0243 2.27734C24.725 2.27734 25.4188 2.41585 26.0658 2.68491C26.7128 2.95397 27.3002 3.34827 27.7943 3.84514L29.486 5.5368C30.4816 6.52764 31.8301 7.08347 33.2318 7.08347H35.6485C37.0585 7.08347 38.4109 7.64362 39.4079 8.64069C40.405 9.63776 40.9651 10.9901 40.9651 12.4001V14.8168C40.9651 16.2185 41.521 17.567 42.5118 18.5626L44.2035 20.2543C44.7003 20.7484 45.0946 21.3358 45.3637 21.9828C45.6327 22.6298 45.7713 23.3236 45.7713 24.0243C45.7713 24.725 45.6327 25.4188 45.3637 26.0658C45.0946 26.7128 44.7003 27.3002 44.2035 27.7943L42.5118 29.486C41.5219 30.4814 40.9659 31.828 40.9651 33.2318V35.6485C40.9651 37.0585 40.405 38.4109 39.4079 39.4079C38.4109 40.405 37.0585 40.9651 35.6485 40.9651H33.2318C31.828 40.9659 30.4814 41.5219 29.486 42.5118L27.7943 44.2035C27.3002 44.7003 26.7128 45.0946 26.0658 45.3637C25.4188 45.6327 24.725 45.7713 24.0243 45.7713C23.3236 45.7713 22.6298 45.6327 21.9828 45.3637C21.3358 45.0946 20.7484 44.7003 20.2543 44.2035L18.5626 42.5118C17.5672 41.5219 16.2206 40.9659 14.8168 40.9651H12.4001C10.9901 40.9651 9.63776 40.405 8.64069 39.4079C7.64362 38.4109 7.08347 37.0585 7.08347 35.6485V33.2318C7.08267 31.828 6.52668 30.4814 5.5368 29.486L3.84514 27.7943C3.34827 27.3002 2.95397 26.7128 2.68491 26.0658C2.41585 25.4188 2.27734 24.725 2.27734 24.0243C2.27734 23.3236 2.41585 22.6298 2.68491 21.9828C2.95397 21.3358 3.34827 20.7484 3.84514 20.2543L5.5368 18.5626C6.52668 17.5672 7.08267 16.2206 7.08347 14.8168V12.4001Z"
                      stroke="#2563EB"
                      stroke-width="4"
                      stroke-linecap="round"
                      stroke-linejoin="round"
                    />
                  </svg>